<svg width="233" height="48" viewBox="0 0 233 48" fill="none" xmlns="http://www.w3.org/2000/svg">
<path d="M1.96804 34.2399C1.61604 34.2399 1.32804 34.1759 1.10404 34.0479C0.91204 33.9199 0.81604 33.7599 0.81604 33.5679C0.81604 33.1519 1.23204 32.8479 2.06404 32.6559C3.18404 32.3679 4.00004 32.0159 4.51204 31.5999C5.05604 31.1519 5.32804 30.3999 5.32804 29.3439V7.59991C5.32804 6.51191 5.10404 5.72791 4.65604 5.24791C4.24004 4.76791 3.45604 4.43191 2.30404 4.23991C1.85604 4.17591 1.53604 4.04791 1.34404 3.85591C1.15204 3.66391 1.05604 3.47191 1.05604 3.27991C1.05604 3.05591 1.15204 2.89591 1.34404 2.79991C1.56804 2.67191 1.85604 2.60791 2.20804 2.60791C3.16804 2.60791 3.95204 2.62391 4.56004 2.65591C5.16804 2.68791 5.74404 2.73591 6.28804 2.79991C6.83204 2.83191 7.47204 2.84791 8.20804 2.84791C8.91204 2.84791 9.53604 2.81591 10.08 2.75191C10.656 2.68791 11.28 2.62391 11.952 2.55991C12.624 2.49591 13.488 2.46391 14.544 2.46391C18.32 2.46391 21.168 3.00791 23.088 4.09591C25.04 5.15191 26.016 6.99191 26.016 9.61591C26.016 10.6399 25.792 11.5839 25.344 12.4479C24.928 13.3119 24.432 13.9839 23.856 14.4639C23.344 14.9439 22.832 15.3279 22.32 15.6159C21.808 15.9039 21.184 16.1599 20.448 16.3839C20.32 16.4159 20.256 16.4959 20.256 16.6239C20.256 16.7519 20.32 16.8319 20.448 16.8639C21.248 17.0559 22.064 17.3119 22.896 17.6319C23.76 17.9519 24.56 18.3999 25.296 18.9759C26.064 19.5519 26.672 20.3039 27.12 21.2319C27.6 22.1279 27.84 23.2799 27.84 24.6879C27.84 26.4799 27.552 27.9039 26.976 28.9599C26.432 29.9839 25.76 30.7679 24.96 31.3119C24.192 31.8559 23.472 32.3039 22.8 32.6559C21.776 33.1679 20.592 33.5519 19.248 33.8079C17.936 34.0639 16.352 34.1919 14.496 34.1919C13.632 34.1919 12.704 34.1599 11.712 34.0959C10.72 34.0319 9.68004 33.9999 8.59204 33.9999C7.85604 33.9999 7.12004 34.0159 6.38404 34.0479C5.68004 34.0799 4.96004 34.1119 4.22404 34.1439C3.48804 34.2079 2.73604 34.2399 1.96804 34.2399ZM14.736 31.7919C15.856 31.7919 16.896 31.4879 17.856 30.8799C18.816 30.2719 19.584 29.4559 20.16 28.4319C20.736 27.4079 21.024 26.2719 21.024 25.0239C21.024 23.8399 20.864 22.8799 20.544 22.1439C20.224 21.3759 19.84 20.7679 19.392 20.3199C18.976 19.8399 18.592 19.4879 18.24 19.2639C17.92 19.0399 17.392 18.7999 16.656 18.5439C15.952 18.2879 15.04 18.1599 13.92 18.1599C13.216 18.1599 12.64 18.3199 12.192 18.6399C11.744 18.9599 11.52 19.3279 11.52 19.7439V28.6239C11.52 29.7439 11.792 30.5599 12.336 31.0719C12.912 31.5519 13.712 31.7919 14.736 31.7919ZM13.536 16.2879C14.336 16.2879 15.12 16.1919 15.888 15.9999C16.656 15.8079 17.424 15.4559 18.192 14.9439C18.48 14.7199 18.832 14.2559 19.248 13.5519C19.696 12.8479 19.92 11.8239 19.92 10.4799C19.92 9.29591 19.744 8.23991 19.392 7.31191C19.072 6.38391 18.496 5.66391 17.664 5.15191C16.864 4.60791 15.744 4.33591 14.304 4.33591C13.248 4.33591 12.512 4.51191 12.096 4.86391C11.712 5.21591 11.52 5.74391 11.52 6.44791V14.5599C11.52 15.2319 11.76 15.6959 12.24 15.9519C12.72 16.1759 13.152 16.2879 13.536 16.2879Z" fill="#B90000"/>
<path d="M31.2135 34.1439C30.9575 34.1439 30.7335 34.0959 30.5415 33.9999C30.3495 33.9039 30.2535 33.7599 30.2535 33.5679C30.2535 33.3119 30.3495 33.1199 30.5415 32.9919C30.7655 32.8639 31.0375 32.7359 31.3575 32.6079C31.8375 32.4479 32.2695 32.2719 32.6535 32.0799C33.0695 31.8879 33.2775 31.4559 33.2775 30.7839V7.35991C33.2775 6.46391 33.1335 5.71191 32.8455 5.10391C32.5895 4.46391 32.0615 4.06391 31.2615 3.90391C30.9415 3.83991 30.7815 3.59991 30.7815 3.18391C30.7815 2.79991 30.9255 2.57591 31.2135 2.51191C32.0135 2.35191 32.8295 2.12791 33.6615 1.83991C34.5255 1.55191 35.3255 1.26391 36.0615 0.975913C36.8295 0.687913 37.4695 0.463913 37.9815 0.303913C38.2055 0.207912 38.3655 0.159912 38.4615 0.159912C38.6215 0.159912 38.7335 0.223912 38.7975 0.351912C38.8615 0.447913 38.8935 0.543913 38.8935 0.639912C38.8935 0.895912 38.8455 1.39191 38.7495 2.12791C38.6535 2.83191 38.6055 3.79191 38.6055 5.00791V30.7359C38.6055 31.4079 38.7975 31.8399 39.1815 32.0319C39.5655 32.2239 39.9975 32.3999 40.4775 32.5599C40.7975 32.6879 41.0535 32.8159 41.2455 32.9439C41.4695 33.0719 41.5815 33.2639 41.5815 33.5199C41.5815 33.7119 41.4855 33.8559 41.2935 33.9519C41.1015 34.0479 40.8775 34.0959 40.6215 34.0959C40.0135 34.0959 39.4535 34.0639 38.9415 33.9999C38.4295 33.9679 37.9175 33.9519 37.4055 33.9519C36.9255 33.9199 36.3975 33.9039 35.8215 33.9039C35.2775 33.9039 34.7655 33.9199 34.2855 33.9519C33.8375 33.9839 33.3735 34.0159 32.8935 34.0479C32.4135 34.1119 31.8535 34.1439 31.2135 34.1439Z" fill="#B90000"/>
<path d="M53.1874 34.6719C51.2994 34.6719 49.6034 34.2559 48.0994 33.4239C46.5954 32.5599 45.3954 31.3759 44.4994 29.8719C43.6034 28.3679 43.1554 26.6719 43.1554 24.7839C43.1554 23.3119 43.4434 21.9039 44.0194 20.5599C44.5954 19.2159 45.3794 18.0159 46.3714 16.9599C47.3634 15.9039 48.5314 15.0719 49.8754 14.4639C51.2194 13.8239 52.6594 13.5039 54.1954 13.5039C56.1474 13.5039 57.8914 13.9679 59.4274 14.8959C60.9954 15.7919 62.2434 16.9919 63.1714 18.4959C64.0994 19.9999 64.5634 21.6479 64.5634 23.4399C64.5634 25.4239 64.1314 27.2799 63.2674 29.0079C62.4354 30.7039 61.1714 32.0799 59.4754 33.1359C57.8114 34.1599 55.7154 34.6719 53.1874 34.6719ZM54.1474 32.7999C54.9474 32.7999 55.6514 32.6399 56.2594 32.3199C56.8994 31.9999 57.4114 31.5039 57.7954 30.8319C58.1794 30.1599 58.4354 29.2799 58.5634 28.1919C58.7234 27.0719 58.8034 25.8719 58.8034 24.5919C58.8034 22.8959 58.5794 21.3599 58.1314 19.9839C57.6834 18.6079 57.0594 17.5039 56.2594 16.6719C55.4594 15.8399 54.5154 15.4239 53.4274 15.4239C52.8194 15.4239 52.2594 15.5359 51.7474 15.7599C51.2674 15.9519 50.8194 16.2879 50.4034 16.7679C49.8274 17.4399 49.4274 18.3679 49.2034 19.5519C49.0114 20.7039 48.9154 22.0479 48.9154 23.5839C48.9154 25.1199 49.1394 26.5919 49.5874 27.9999C50.0674 29.4079 50.6914 30.5599 51.4594 31.4559C52.2594 32.3519 53.1554 32.7999 54.1474 32.7999Z" fill="#B90000"/>
<path d="M77.1874 34.6719C75.2994 34.6719 73.6034 34.2559 72.0994 33.4239C70.5954 32.5599 69.3954 31.3759 68.4994 29.8719C67.6034 28.3679 67.1554 26.6719 67.1554 24.7839C67.1554 23.3119 67.4434 21.9039 68.0194 20.5599C68.5954 19.2159 69.3794 18.0159 70.3714 16.9599C71.3634 15.9039 72.5314 15.0719 73.8754 14.4639C75.2194 13.8239 76.6594 13.5039 78.1954 13.5039C80.1474 13.5039 81.8914 13.9679 83.4274 14.8959C84.9954 15.7919 86.2434 16.9919 87.1714 18.4959C88.0994 19.9999 88.5634 21.6479 88.5634 23.4399C88.5634 25.4239 88.1314 27.2799 87.2674 29.0079C86.4354 30.7039 85.1714 32.0799 83.4754 33.1359C81.8114 34.1599 79.7154 34.6719 77.1874 34.6719ZM78.1474 32.7999C78.9474 32.7999 79.6514 32.6399 80.2594 32.3199C80.8994 31.9999 81.4114 31.5039 81.7954 30.8319C82.1794 30.1599 82.4354 29.2799 82.5634 28.1919C82.7234 27.0719 82.8034 25.8719 82.8034 24.5919C82.8034 22.8959 82.5794 21.3599 82.1314 19.9839C81.6834 18.6079 81.0594 17.5039 80.2594 16.6719C79.4594 15.8399 78.5154 15.4239 77.4274 15.4239C76.8194 15.4239 76.2594 15.5359 75.7474 15.7599C75.2674 15.9519 74.8194 16.2879 74.4034 16.7679C73.8274 17.4399 73.4274 18.3679 73.2034 19.5519C73.0114 20.7039 72.9154 22.0479 72.9154 23.5839C72.9154 25.1199 73.1394 26.5919 73.5874 27.9999C74.0674 29.4079 74.6914 30.5599 75.4594 31.4559C76.2594 32.3519 77.1554 32.7999 78.1474 32.7999Z" fill="#B90000"/>
<path d="M107.043 34.9119C106.947 34.9119 106.803 34.8159 106.611 34.6239C106.451 34.4639 106.371 34.3359 106.371 34.2399C106.435 33.7919 106.483 33.3279 106.515 32.8479C106.579 32.3359 106.627 31.9039 106.659 31.5519V31.2639C106.051 32.1599 105.187 32.9599 104.067 33.6639C102.979 34.3359 101.731 34.6719 100.323 34.6719C98.5314 34.6719 96.9474 34.2239 95.5714 33.3279C94.1954 32.3999 93.1074 31.1839 92.3074 29.6799C91.5394 28.1439 91.1554 26.4959 91.1554 24.7359C91.1554 22.6559 91.6194 20.7839 92.5474 19.1199C93.5074 17.4239 94.8354 16.0959 96.5314 15.1359C98.2274 14.1439 100.195 13.6479 102.435 13.6479C102.979 13.6479 103.523 13.6959 104.067 13.7919C104.643 13.8559 105.139 13.9519 105.555 14.0799C105.939 14.1759 106.147 14.2239 106.179 14.2239C106.339 14.2239 106.419 13.9519 106.419 13.4079V7.35991C106.419 6.14391 106.259 5.29591 105.939 4.81591C105.619 4.33591 105.107 4.03191 104.403 3.90391C104.051 3.80791 103.875 3.56791 103.875 3.18391C103.875 2.83191 104.035 2.60791 104.355 2.51191C105.603 2.22391 106.771 1.90391 107.859 1.55191C108.979 1.16791 109.891 0.815913 110.595 0.495914C110.915 0.367913 111.139 0.287913 111.267 0.255914C111.427 0.191913 111.523 0.159912 111.555 0.159912C111.875 0.159912 112.035 0.319912 112.035 0.639912C112.035 0.639912 112.019 0.831913 111.987 1.21591C111.955 1.59991 111.907 2.12791 111.843 2.79991C111.811 3.43991 111.779 4.17591 111.747 5.00791L111.603 28.3839C111.603 29.4719 111.683 30.2559 111.843 30.7359C112.003 31.2159 112.275 31.4559 112.659 31.4559C112.819 31.4559 113.027 31.4559 113.283 31.4559C113.539 31.4239 113.987 31.3759 114.627 31.3119C115.107 31.2799 115.347 31.4399 115.347 31.7919C115.347 32.0479 115.251 32.3039 115.059 32.5599C114.899 32.7839 114.739 32.8959 114.579 32.8959C113.491 33.0239 112.387 33.2319 111.267 33.5199C110.147 33.8079 109.011 34.1759 107.859 34.6239C107.635 34.7199 107.459 34.7839 107.331 34.8159C107.235 34.8799 107.139 34.9119 107.043 34.9119ZM102.531 31.6479C103.139 31.6479 103.811 31.5039 104.547 31.2159C105.283 30.8959 105.907 30.4639 106.419 29.9199V19.9359C106.419 19.2639 106.195 18.6079 105.747 17.9679C105.299 17.2959 104.707 16.7519 103.971 16.3359C103.235 15.8879 102.451 15.6639 101.619 15.6639C100.851 15.6639 100.099 15.9519 99.3634 16.5279C98.6274 17.0719 98.0034 17.9199 97.4914 19.0719C97.0114 20.2239 96.7714 21.6959 96.7714 23.4879C96.7714 24.9599 96.9474 26.2239 97.2994 27.2799C97.6834 28.3039 98.1634 29.1359 98.7394 29.7759C99.3154 30.4159 99.9394 30.8959 100.611 31.2159C101.283 31.5039 101.923 31.6479 102.531 31.6479Z" fill="#B90000"/>
<path d="M130.691 34.1919C130.307 34.1919 130.003 34.1279 129.779 33.9999C129.587 33.9039 129.491 33.7599 129.491 33.5679C129.491 33.3119 129.619 33.1359 129.875 33.0399C130.163 32.9119 130.499 32.7999 130.883 32.7039C131.651 32.4799 132.307 32.0479 132.851 31.4079C133.395 30.7679 133.731 29.9359 133.859 28.9119C134.115 26.9599 134.355 24.8319 134.579 22.5279C134.835 20.2239 135.059 17.9039 135.251 15.5679C135.475 13.2319 135.651 11.0399 135.779 8.99191C135.779 8.76791 135.779 8.51191 135.779 8.22391C135.779 7.93591 135.779 7.64791 135.779 7.35991C135.747 6.87991 135.651 6.49591 135.491 6.20791C135.363 5.88791 135.123 5.59991 134.771 5.34391C134.323 5.02391 133.859 4.78391 133.379 4.62391C132.899 4.43191 132.355 4.27191 131.747 4.14391C131.395 4.07991 131.107 3.96791 130.883 3.80791C130.691 3.61591 130.595 3.39191 130.595 3.13591C130.595 2.87991 130.723 2.70391 130.979 2.60791C131.235 2.51191 131.571 2.46391 131.987 2.46391C132.403 2.46391 132.963 2.47991 133.667 2.51191C134.371 2.54391 135.123 2.59191 135.923 2.65591C136.755 2.68791 137.571 2.71991 138.371 2.75191C139.171 2.78391 139.875 2.79991 140.483 2.79991C140.739 2.79991 140.963 2.87991 141.155 3.03991C141.347 3.19991 141.475 3.39191 141.539 3.61591C141.731 4.22391 141.923 4.81591 142.115 5.39191C142.307 5.96791 142.515 6.57591 142.739 7.21591L149.939 24.8319C150.035 24.9919 150.163 25.0879 150.323 25.1199C150.483 25.1199 150.595 25.0399 150.659 24.8799L158.387 7.69591C158.611 6.76791 158.787 5.95191 158.915 5.24791C159.075 4.54391 159.219 3.98391 159.347 3.56791C159.443 3.15191 159.651 2.94391 159.971 2.94391H161.939C163.155 2.87991 164.435 2.78391 165.779 2.65591C167.123 2.52791 168.163 2.46391 168.899 2.46391C169.155 2.46391 169.395 2.51191 169.619 2.60791C169.875 2.67191 170.003 2.83191 170.003 3.08791C170.003 3.34391 169.907 3.53591 169.715 3.66391C169.523 3.79191 169.235 3.93591 168.851 4.09591C168.595 4.15991 168.291 4.27191 167.939 4.43191C167.587 4.55991 167.283 4.68791 167.027 4.81591C166.355 5.10391 165.843 5.47191 165.491 5.91991C165.171 6.36791 165.027 7.00791 165.059 7.83991C165.091 10.1119 165.155 12.1599 165.251 13.9839C165.347 15.7759 165.427 17.4719 165.491 19.0719C165.587 20.6399 165.699 22.2559 165.827 23.9199C165.955 25.5519 166.067 27.3599 166.163 29.3439C166.227 30.2399 166.563 30.9439 167.171 31.4559C167.811 31.9679 168.659 32.3519 169.715 32.6079C170.099 32.7039 170.403 32.8159 170.627 32.9439C170.883 33.0719 171.011 33.2639 171.011 33.5199C171.011 33.7439 170.899 33.9039 170.675 33.9999C170.483 34.0959 170.211 34.1439 169.859 34.1439C169.123 34.1439 168.355 34.1279 167.555 34.0959C166.755 34.0639 165.971 34.0319 165.203 33.9999C164.467 33.9679 163.763 33.9519 163.091 33.9519C162.451 33.9519 161.795 33.9679 161.123 33.9999C160.451 34.0319 159.763 34.0639 159.059 34.0959C158.355 34.1599 157.619 34.1919 156.851 34.1919C156.531 34.1919 156.243 34.1279 155.987 33.9999C155.763 33.9039 155.651 33.7599 155.651 33.5679C155.651 33.3119 155.763 33.1039 155.987 32.9439C156.243 32.7839 156.563 32.6719 156.947 32.6079C158.035 32.3839 158.787 32.0479 159.203 31.5999C159.651 31.1519 159.843 30.3999 159.779 29.3439C159.747 27.2639 159.699 25.2639 159.635 23.3439C159.571 21.4239 159.507 19.5199 159.443 17.6319C159.379 15.7439 159.299 13.8399 159.203 11.9199C159.171 11.6639 159.091 11.5519 158.963 11.5839C158.867 11.5839 158.755 11.7119 158.627 11.9679L148.835 34.0479C148.707 34.3999 148.499 34.5439 148.211 34.4799C147.923 34.4479 147.731 34.3039 147.635 34.0479C146.163 30.3359 144.611 26.6719 142.979 23.0559C141.379 19.4079 139.795 15.7119 138.227 11.9679C138.131 11.7119 137.987 11.6159 137.795 11.6799C137.635 11.7439 137.539 11.9199 137.507 12.2079C137.347 13.9999 137.203 15.8559 137.075 17.7759C136.947 19.6639 136.867 21.5519 136.835 23.4399C136.803 25.3279 136.787 27.1999 136.787 29.0559C136.787 29.9199 137.059 30.6559 137.603 31.2639C138.179 31.8719 139.043 32.3199 140.195 32.6079C140.579 32.6719 140.899 32.7839 141.155 32.9439C141.443 33.0719 141.587 33.2639 141.587 33.5199C141.587 33.7439 141.459 33.9039 141.203 33.9999C140.947 34.0959 140.659 34.1439 140.339 34.1439C139.475 34.1439 138.819 34.1279 138.371 34.0959C137.923 34.0639 137.507 34.0319 137.123 33.9999C136.739 33.9679 136.227 33.9519 135.587 33.9519C134.915 33.9519 134.275 33.9679 133.667 33.9999C133.091 34.0319 132.547 34.0639 132.035 34.0959C131.523 34.1599 131.075 34.1919 130.691 34.1919Z" fill="#B90000"/>
<path d="M177.375 34.6719C176.607 34.6719 175.871 34.4639 175.167 34.0479C174.495 33.6319 173.951 33.0879 173.535 32.4159C173.119 31.7439 172.911 31.0559 172.911 30.3519C172.911 29.2639 173.231 28.3839 173.871 27.7119C174.511 27.0079 175.471 26.3839 176.751 25.8399L181.215 23.9199C181.855 23.6639 182.239 23.4239 182.367 23.1999C182.527 22.9759 182.607 22.5599 182.607 21.9519L182.703 19.1199C182.735 18.2239 182.543 17.5039 182.127 16.9599C181.743 16.4159 181.151 16.1439 180.351 16.1439C179.935 16.1439 179.503 16.2239 179.055 16.3839C178.607 16.5439 178.255 16.7519 177.999 17.0079C177.871 17.1359 177.775 17.3119 177.711 17.5359C177.679 17.7279 177.663 17.9199 177.663 18.1119C177.663 18.2719 177.663 18.4799 177.663 18.7359C177.695 18.9599 177.711 19.1679 177.711 19.3599C177.711 19.5519 177.471 19.7919 176.991 20.0799C176.511 20.3679 175.967 20.6239 175.359 20.8479C174.751 21.0719 174.239 21.1839 173.823 21.1839C173.599 21.1839 173.423 21.1039 173.295 20.9439C173.167 20.7839 173.103 20.5919 173.103 20.3679C173.103 19.8559 173.263 19.3439 173.583 18.8319C173.935 18.2879 174.479 17.7119 175.215 17.1039C176.015 16.4319 176.895 15.8399 177.855 15.3279C178.815 14.7839 179.743 14.3519 180.639 14.0319C181.567 13.7119 182.367 13.5519 183.039 13.5519C184.575 13.5519 185.807 14.0639 186.735 15.0879C187.663 16.0799 188.111 17.3919 188.079 19.0239L187.839 29.2959C187.807 29.9999 187.935 30.5919 188.223 31.0719C188.543 31.5519 188.927 31.7919 189.375 31.7919C190.047 31.7919 190.591 31.5999 191.007 31.2159C191.135 31.0879 191.247 31.0239 191.343 31.0239C191.503 31.0239 191.631 31.0879 191.727 31.2159C191.855 31.3119 191.919 31.4399 191.919 31.5999C191.919 31.9519 191.663 32.3839 191.151 32.8959C190.575 33.4719 189.951 33.9039 189.279 34.1919C188.639 34.5119 187.999 34.6719 187.359 34.6719C185.663 34.6719 184.287 33.7919 183.231 32.0319H183.087C182.031 32.9599 181.055 33.6319 180.159 34.0479C179.295 34.4639 178.367 34.6719 177.375 34.6719ZM180.015 31.7919C180.463 31.7919 180.847 31.7279 181.167 31.5999C181.487 31.4399 181.759 31.2319 181.983 30.9759C182.111 30.8159 182.207 30.6239 182.271 30.3999C182.367 30.1759 182.431 29.8559 182.463 29.4399L182.559 26.3679C182.591 26.0479 182.559 25.8399 182.463 25.7439C182.367 25.6159 182.255 25.5519 182.127 25.5519C182.063 25.5519 181.967 25.5679 181.839 25.5999C181.711 25.5999 181.567 25.6479 181.407 25.7439C180.223 26.2239 179.375 26.7359 178.863 27.2799C178.351 27.8239 178.095 28.5279 178.095 29.3919C178.095 30.2559 178.303 30.8799 178.719 31.2639C179.135 31.6159 179.567 31.7919 180.015 31.7919Z" fill="#B90000"/>
<path d="M201.798 47.8719C198.79 47.8719 196.438 47.3759 194.742 46.3839C193.046 45.3919 192.198 44.0319 192.198 42.3039C192.198 41.4079 192.31 40.6559 192.534 40.0479C192.79 39.4719 193.286 38.9279 194.022 38.4159C194.566 37.9999 195.158 37.5359 195.798 37.0239C196.438 36.5439 197.03 36.0959 197.574 35.6799L199.83 36.2559C198.646 36.9599 197.766 37.6799 197.19 38.4159C196.614 39.1839 196.326 40.0799 196.326 41.1039C196.326 42.3839 196.87 43.4559 197.958 44.3199C199.078 45.1839 200.486 45.6159 202.182 45.6159C204.262 45.6159 205.798 45.1839 206.79 44.3199C207.462 43.7439 207.99 43.0559 208.374 42.2559C208.758 41.4559 208.95 40.6399 208.95 39.8079C208.95 39.1999 208.742 38.7039 208.326 38.3199C207.942 37.9679 207.27 37.6639 206.31 37.4079C205.35 37.1839 204.038 37.0079 202.374 36.8799C199.142 36.5919 196.854 36.0319 195.51 35.1999C194.198 34.3999 193.542 33.2799 193.542 31.8399C193.542 31.5519 193.622 31.2639 193.782 30.9759C193.974 30.6559 194.31 30.3359 194.79 30.0159C195.366 29.5679 195.846 29.1999 196.23 28.9119C196.646 28.6239 196.982 28.3519 197.238 28.0959C197.494 27.8399 197.686 27.5839 197.814 27.3279L199.926 28.1919C199.254 28.4159 198.694 28.7359 198.246 29.1519C197.83 29.5359 197.622 29.8879 197.622 30.2079C197.622 30.5599 197.846 30.8799 198.294 31.1679C198.742 31.4239 199.446 31.6319 200.406 31.7919C201.366 31.9519 202.662 32.0959 204.294 32.2239C207.59 32.4479 209.99 32.9599 211.494 33.7599C213.03 34.5279 213.798 35.6639 213.798 37.1679C213.798 38.4799 213.446 39.7599 212.742 41.0079C212.038 42.2879 211.11 43.4399 209.958 44.4639C208.806 45.5199 207.526 46.3519 206.118 46.9599C204.71 47.5679 203.27 47.8719 201.798 47.8719ZM202.422 27.2799C203.478 27.2799 204.342 26.7039 205.014 25.5519C205.686 24.3679 206.022 22.8479 206.022 20.9919C206.022 19.9039 205.846 18.9279 205.494 18.0639C205.174 17.1999 204.726 16.5279 204.15 16.0479C203.574 15.5359 202.918 15.2799 202.182 15.2799C201.51 15.2799 200.886 15.5359 200.31 16.0479C199.766 16.5599 199.334 17.2479 199.014 18.1119C198.694 18.9439 198.534 19.8879 198.534 20.9439C198.534 22.1279 198.694 23.1999 199.014 24.1599C199.366 25.1199 199.846 25.8879 200.454 26.4639C201.062 27.0079 201.718 27.2799 202.422 27.2799ZM201.99 29.2479C200.582 29.2479 199.222 28.9119 197.91 28.2399C196.63 27.5359 195.574 26.6079 194.742 25.4559C193.91 24.2719 193.494 22.9439 193.494 21.4719C193.494 19.9039 193.926 18.5279 194.79 17.3439C195.654 16.1279 196.79 15.1839 198.198 14.5119C199.606 13.8079 201.11 13.4559 202.71 13.4559C203.67 13.4559 204.566 13.5839 205.398 13.8399C206.23 14.0639 207.11 14.2559 208.038 14.4159C208.71 14.5759 209.318 14.6879 209.862 14.7519C210.406 14.8159 210.998 14.8479 211.638 14.8479C212.086 14.8479 212.566 14.8319 213.078 14.7999C213.622 14.7359 214.022 14.7039 214.278 14.7039C214.758 14.7039 214.998 15.0239 214.998 15.6639C214.998 16.1439 214.806 16.6239 214.422 17.1039C214.262 17.2959 214.086 17.3919 213.894 17.3919H212.598C211.766 17.3919 211.238 17.5199 211.014 17.7759C210.95 17.8719 210.902 17.9839 210.87 18.1119C210.838 18.2399 210.806 18.4479 210.774 18.7359C210.774 19.0239 210.774 19.4559 210.774 20.0319C210.774 21.6959 210.358 23.2319 209.526 24.6399C208.726 26.0159 207.654 27.1359 206.31 27.9999C204.998 28.8319 203.558 29.2479 201.99 29.2479Z" fill="#B90000"/>
<path d="M224.582 34.6719C222.822 34.6719 221.27 34.2239 219.926 33.3279C218.582 32.4319 217.526 31.1999 216.758 29.6319C215.99 28.0319 215.606 26.2239 215.606 24.2079C215.606 22.2559 216.054 20.4799 216.95 18.8799C217.878 17.2479 219.11 15.9519 220.646 14.9919C222.182 14.0319 223.862 13.5519 225.686 13.5519C227.03 13.5519 228.23 13.8399 229.286 14.4159C230.342 14.9599 231.174 15.7279 231.782 16.7199C232.422 17.6799 232.742 18.7679 232.742 19.9839C232.742 21.1359 232.246 21.7119 231.254 21.7119H221.51C221.062 21.7119 220.726 21.8399 220.502 22.0959C220.31 22.3199 220.214 22.7519 220.214 23.3919C220.214 24.7359 220.502 25.9519 221.078 27.0399C221.686 28.1279 222.486 28.9919 223.478 29.6319C224.47 30.2719 225.606 30.5919 226.886 30.5919C227.814 30.5919 228.662 30.4159 229.43 30.0639C230.23 29.6799 230.982 29.1679 231.686 28.5279C231.814 28.4319 231.926 28.3519 232.022 28.2879C232.118 28.1919 232.214 28.1439 232.31 28.1439C232.63 28.1439 232.79 28.3359 232.79 28.7199C232.79 29.1679 232.598 29.7119 232.214 30.3519C231.83 31.0879 231.27 31.7919 230.534 32.4639C229.83 33.1359 228.966 33.6639 227.942 34.0479C226.918 34.4639 225.798 34.6719 224.582 34.6719ZM221.51 19.8399H224.918C225.75 19.8399 226.374 19.8239 226.79 19.7919C227.206 19.7599 227.606 19.6959 227.99 19.5999C228.15 19.5679 228.262 19.4399 228.326 19.2159C228.39 18.9599 228.422 18.6719 228.422 18.3519C228.422 17.4879 228.086 16.7679 227.414 16.1919C226.774 15.5839 225.974 15.2799 225.014 15.2799C224.342 15.2799 223.686 15.4879 223.046 15.9039C222.406 16.2879 221.878 16.7839 221.462 17.3919C221.046 17.9999 220.854 18.6239 220.886 19.2639C220.886 19.6479 221.094 19.8399 221.51 19.8399Z" fill="#B90000"/>
</svg>
