{
  "asset": {
    "generator": "Khronos glTF Blender I/O v1.7.33",
    "version": "2.0"
  },
  "scene": 0,
  "scenes": [
    {
      "name": "Scene",
      "nodes": [
        0
      ]
    }
  ],
  "nodes": [
    {
      "mesh": 0,
      "name": "Circle"
    }
  ],
  "materials": [
    {
      "doubleSided": true,
      "name": "Beanie",
      "pbrMetallicRoughness": {
        "baseColorTexture": {
          "index": 0,
          "texCoord": 0
        },
        "metallicFactor": 0,
        "roughnessFactor": 0.5,
        "baseColorFactor": [
          1,
          1,
          1,
          1
        ]
      },
      "emissiveFactor": [
        0,
        0,
        0
      ],
      "alphaMode": "OPAQUE"
    }
  ],
  "meshes": [
    {
      "name": "Circle",
      "primitives": [
        {
          "attributes": {
            "POSITION": 0,
            "NORMAL": 1,
            "TEXCOORD_0": 2
          },
          "indices": 3,
          "material": 0,
          "mode": 4
        }
      ]
    }
  ],
  "textures": [
    {
      "sampler": 0,
      "source": 0
    }
  ],
  "images": [
    {
      "mimeType": "image/png",
      "name": "black_beanie",
      "uri": "black_beanie.png"
    }
  ],
  "accessors": [
    {
      "bufferView": 0,
      "componentType": 5126,
      "count": 591,
      "max": [
        0.10859178751707077,
        1.7295961380004883,
        0.10413065552711487
      ],
      "min": [
        -0.10967371612787247,
        1.5402045249938965,
        -0.14438782632350922
      ],
      "type": "VEC3",
      "byteOffset": 0
    },
    {
      "bufferView": 1,
      "componentType": 5126,
      "count": 591,
      "type": "VEC3",
      "byteOffset": 0
    },
    {
      "bufferView": 2,
      "componentType": 5126,
      "count": 591,
      "type": "VEC2",
      "byteOffset": 0
    },
    {
      "bufferView": 3,
      "componentType": 5123,
      "count": 2010,
      "type": "SCALAR",
      "byteOffset": 0
    }
  ],
  "bufferViews": [
    {
      "buffer": 0,
      "byteLength": 7092,
      "byteOffset": 0,
      "byteStride": 12,
      "target": 34962
    },
    {
      "buffer": 0,
      "byteLength": 7092,
      "byteOffset": 7096,
      "byteStride": 12,
      "target": 34962
    },
    {
      "buffer": 0,
      "byteLength": 4728,
      "byteOffset": 14192,
      "byteStride": 8,
      "target": 34962
    },
    {
      "buffer": 0,
      "byteLength": 4020,
      "byteOffset": 18920,
      "target": 34963
    }
  ],
  "samplers": [
    {
      "magFilter": 9729,
      "minFilter": 9987,
      "wrapS": 10497,
      "wrapT": 10497
    }
  ],
  "buffers": [
    {
      "name": "beanie",
      "byteLength": 22944,
      "uri": "beanie.bin"
    }
  ]
}
